<svg width="32" height="32" viewBox="0 0 32 32" fill="none" xmlns="http://www.w3.org/2000/svg">
<path d="M20.9733 4H11.0267L4 11.0267V20.9733L11.0267 28H20.9733L28 20.9733V11.0267L20.9733 4ZM25.3333 19.8667L19.8667 25.3333H12.1333L6.66667 19.8667V12.1333L12.1333 6.66667H19.8667L25.3333 12.1333V19.8667Z" fill="#686868"/>
<path d="M16 22.6667C16.7364 22.6667 17.3333 22.0697 17.3333 21.3333C17.3333 20.597 16.7364 20 16 20C15.2636 20 14.6667 20.597 14.6667 21.3333C14.6667 22.0697 15.2636 22.6667 16 22.6667Z" fill="#686868"/>
<path d="M14.6667 9.33333H17.3333V18.6667H14.6667V9.33333Z" fill="#686868"/>
</svg>
