<svg width="24" height="24" viewBox="0 0 24 24" fill="none" xmlns="http://www.w3.org/2000/svg">
<path d="M15.7559 14.2549H14.9659L14.6859 13.9849C15.6659 12.8449 16.2559 11.3649 16.2559 9.75488C16.2559 6.16488 13.3459 3.25488 9.75586 3.25488C6.16586 3.25488 3.25586 6.16488 3.25586 9.75488C3.25586 13.3449 6.16586 16.2549 9.75586 16.2549C11.3659 16.2549 12.8459 15.6649 13.9859 14.6849L14.2559 14.9649V15.7549L19.2559 20.7449L20.7459 19.2549L15.7559 14.2549ZM9.75586 14.2549C7.26586 14.2549 5.25586 12.2449 5.25586 9.75488C5.25586 7.26488 7.26586 5.25488 9.75586 5.25488C12.2459 5.25488 14.2559 7.26488 14.2559 9.75488C14.2559 12.2449 12.2459 14.2549 9.75586 14.2549Z" fill="#4E4E4E"/>
</svg>
