<svg width="32" height="32" viewBox="0 0 32 32" fill="none" xmlns="http://www.w3.org/2000/svg">
<path d="M25.9104 17.3065C25.9637 16.8798 26.0037 16.4532 26.0037 15.9998C26.0037 15.5465 25.9637 15.1198 25.9104 14.6932L28.7237 12.4932C28.977 12.2932 29.0437 11.9332 28.8837 11.6398L26.217 7.0265C26.097 6.81317 25.8704 6.69317 25.6304 6.69317C25.5504 6.69317 25.4704 6.7065 25.4037 6.73317L22.0837 8.0665C21.3904 7.53317 20.6437 7.09317 19.8304 6.75984L19.3237 3.2265C19.2837 2.9065 19.0037 2.6665 18.6704 2.6665H13.337C13.0037 2.6665 12.7237 2.9065 12.6837 3.2265L12.177 6.75984C11.3637 7.09317 10.617 7.5465 9.92369 8.0665L6.60369 6.73317C6.52369 6.7065 6.44369 6.69317 6.36369 6.69317C6.13703 6.69317 5.91036 6.81317 5.79036 7.0265L3.12369 11.6398C2.95036 11.9332 3.03036 12.2932 3.28369 12.4932L6.09703 14.6932C6.04369 15.1198 6.00369 15.5598 6.00369 15.9998C6.00369 16.4398 6.04369 16.8798 6.09703 17.3065L3.28369 19.5065C3.03036 19.7065 2.96369 20.0665 3.12369 20.3598L5.79036 24.9732C5.91036 25.1865 6.13703 25.3065 6.37703 25.3065C6.45703 25.3065 6.53703 25.2932 6.60369 25.2665L9.92369 23.9332C10.617 24.4665 11.3637 24.9065 12.177 25.2398L12.6837 28.7732C12.7237 29.0932 13.0037 29.3332 13.337 29.3332H18.6704C19.0037 29.3332 19.2837 29.0932 19.3237 28.7732L19.8304 25.2398C20.6437 24.9065 21.3904 24.4532 22.0837 23.9332L25.4037 25.2665C25.4837 25.2932 25.5637 25.3065 25.6437 25.3065C25.8704 25.3065 26.097 25.1865 26.217 24.9732L28.8837 20.3598C29.0437 20.0665 28.977 19.7065 28.7237 19.5065L25.9104 17.3065ZM23.2704 15.0265C23.3237 15.4398 23.337 15.7198 23.337 15.9998C23.337 16.2798 23.3104 16.5732 23.2704 16.9732L23.0837 18.4798L24.2704 19.4132L25.7104 20.5332L24.777 22.1465L23.0837 21.4665L21.697 20.9065L20.497 21.8132C19.9237 22.2398 19.377 22.5598 18.8304 22.7865L17.417 23.3598L17.2037 24.8665L16.937 26.6665H15.0704L14.6037 23.3598L13.1904 22.7865C12.617 22.5465 12.0837 22.2398 11.5504 21.8398L10.337 20.9065L8.92369 21.4798L7.23036 22.1598L6.29703 20.5465L7.73703 19.4265L8.92369 18.4932L8.73703 16.9865C8.69703 16.5732 8.67036 16.2665 8.67036 15.9998C8.67036 15.7332 8.69703 15.4265 8.73703 15.0265L8.92369 13.5198L7.73703 12.5865L6.29703 11.4665L7.23036 9.85317L8.92369 10.5332L10.3104 11.0932L11.5104 10.1865C12.0837 9.75984 12.6304 9.43984 13.177 9.21317L14.5904 8.63984L14.8037 7.13317L15.0704 5.33317H16.9237L17.3904 8.63984L18.8037 9.21317C19.377 9.45317 19.9104 9.75984 20.4437 10.1598L21.657 11.0932L23.0704 10.5198L24.7637 9.83984L25.697 11.4532L24.2704 12.5865L23.0837 13.5198L23.2704 15.0265ZM16.0037 10.6665C13.057 10.6665 10.6704 13.0532 10.6704 15.9998C10.6704 18.9465 13.057 21.3332 16.0037 21.3332C18.9504 21.3332 21.337 18.9465 21.337 15.9998C21.337 13.0532 18.9504 10.6665 16.0037 10.6665ZM16.0037 18.6665C14.537 18.6665 13.337 17.4665 13.337 15.9998C13.337 14.5332 14.537 13.3332 16.0037 13.3332C17.4704 13.3332 18.6704 14.5332 18.6704 15.9998C18.6704 17.4665 17.4704 18.6665 16.0037 18.6665Z" fill="#686868"/>
</svg>
