<svg width="32" height="32" viewBox="0 0 32 32" fill="none" xmlns="http://www.w3.org/2000/svg">
<path d="M16.6793 13.3198C16.6793 11.1198 14.8793 9.31984 12.6793 9.31984C10.4793 9.31984 8.67935 11.1198 8.67935 13.3198C8.67935 15.5198 10.4793 17.3198 12.6793 17.3198C14.8793 17.3198 16.6793 15.5198 16.6793 13.3198ZM12.6793 14.6532C11.946 14.6532 11.346 14.0532 11.346 13.3198C11.346 12.5865 11.946 11.9865 12.6793 11.9865C13.4127 11.9865 14.0127 12.5865 14.0127 13.3198C14.0127 14.0532 13.4127 14.6532 12.6793 14.6532ZM21.346 17.3198C22.826 17.3198 24.0127 16.1332 24.0127 14.6532C24.0127 13.1732 22.826 11.9865 21.346 11.9865C19.866 11.9865 18.666 13.1732 18.6793 14.6532C18.6793 16.1332 19.866 17.3198 21.346 17.3198ZM15.9993 2.6665C8.63935 2.6665 2.66602 8.63984 2.66602 15.9998C2.66602 23.3598 8.63935 29.3332 15.9993 29.3332C23.3594 29.3332 29.3327 23.3598 29.3327 15.9998C29.3327 8.63984 23.3594 2.6665 15.9993 2.6665ZM7.79935 22.8132C8.70602 22.0932 10.826 21.3332 12.6793 21.3332C12.7727 21.3332 12.8793 21.3465 12.986 21.3465C13.306 20.4932 13.8793 19.6265 14.7193 18.8665C13.9727 18.7332 13.266 18.6532 12.6793 18.6532C10.946 18.6532 8.15935 19.2532 6.37268 20.5598C5.70602 19.1732 5.33268 17.6265 5.33268 15.9865C5.33268 10.1065 10.1193 5.31984 15.9993 5.31984C21.8793 5.31984 26.666 10.1065 26.666 15.9865C26.666 17.5865 26.306 19.1065 25.666 20.4798C24.3327 19.6932 22.5194 19.3198 21.346 19.3198C19.3193 19.3198 15.346 20.3998 15.346 22.9198V26.6265C12.3193 26.4532 9.62602 25.0132 7.79935 22.8132Z" fill="#686868"/>
</svg>
