<svg width="28" height="28" viewBox="0 0 28 28" fill="none" xmlns="http://www.w3.org/2000/svg">
<path d="M5.38602 9.27984L0.666016 13.9998L5.38602 18.7198L7.73268 16.3598L5.38602 13.9998L7.73268 11.6398L5.38602 9.27984ZM13.9993 22.6132L11.6393 20.2665L9.27935 22.6132L13.9993 27.3332L18.7193 22.6132L16.3594 20.2665L13.9993 22.6132ZM22.6127 9.27984L20.266 11.6398L22.6127 13.9998L20.266 16.3598L22.6127 18.7198L27.3327 13.9998L22.6127 9.27984ZM9.27935 5.3865L11.6393 7.73317L13.9993 5.3865L16.3594 7.73317L18.7193 5.3865L13.9993 0.666504L9.27935 5.3865Z" fill="#686868"/>
<path d="M13.9993 17.9998C16.2085 17.9998 17.9993 16.209 17.9993 13.9998C17.9993 11.7907 16.2085 9.99984 13.9993 9.99984C11.7902 9.99984 9.99935 11.7907 9.99935 13.9998C9.99935 16.209 11.7902 17.9998 13.9993 17.9998Z" fill="#686868"/>
</svg>
